# xmcd CD database file
#
# Track frame offsets:
#	150
#	7917
#	23647
#	40968
#	51048
#	58001
#	75239
#	95911
#	107818
#	125236
#
# Disc length: 1927 seconds
#
# Revision: 0
# Processed by: cddbd v1.5.2PL0 Copyright (c) Steve Scherf et al.
# Submitted via: CDex 1.70beta3
#
DISCID=7a07850a
DTITLE=Yoshichika Tarue - Rain Man's Story
DYEAR=1900
DGENRE=Jazz
TTITLE0=chapter1
TTITLE1=chapter2
TTITLE2=chapter3
TTITLE3=chapter4
TTITLE4=chapter5
TTITLE5=chapter6
TTITLE6=chapter7
TTITLE7=chapter8
TTITLE8=chapter9
TTITLE9=chapter10
EXTD=
EXTT0=
EXTT1=
EXTT2=
EXTT3=
EXTT4=
EXTT5=
EXTT6=
EXTT7=
EXTT8=
EXTT9=
PLAYORDER=
